<?xml version="1.0" encoding="utf-8"?>
<!-- Generator: Adobe Illustrator 13.0.0, SVG Export Plug-In . SVG Version: 6.00 Build 14948)  -->
<!DOCTYPE svg PUBLIC "-//W3C//DTD SVG 1.1//EN" "http://www.w3.org/Graphics/SVG/1.1/DTD/svg11.dtd">
<svg version="1.1" id="レイヤー_1" xmlns="http://www.w3.org/2000/svg" xmlns:xlink="http://www.w3.org/1999/xlink" x="0px"
	 y="0px" width="800px" height="600px" viewBox="0 0 800 600" enable-background="new 0 0 800 600" xml:space="preserve">
<rect x="10.5" y="51.504" fill="#A51620" width="776" height="238"/>
<g>
	<path fill="#FFFFFF" d="M184.983,222.145c-6.793,0-13.39-1.302-19.627-3.875c25.354-7.158,44.468-28.394,48.851-54.406
		c0.708-3.783,1.067-7.662,1.067-11.525c0-4.281-0.445-8.586-1.323-12.802c-0.945-4.968-2.455-9.839-4.49-14.491
		c16.786,9.04,27.165,26.354,27.165,45.46c0,13.792-5.372,26.759-15.125,36.513C211.746,216.773,198.776,222.145,184.983,222.145z"
		/>
	<path fill="#FFFFFF" d="M163.024,217.241c-1.717-0.81-3.413-1.726-5.056-2.735c14.785-1.201,28.607-7.699,38.986-18.032
		C188.051,206.602,176.193,213.939,163.024,217.241z"/>
	<path fill="#FFFFFF" d="M133.358,171.583c-0.009-0.371-0.014-0.729-0.014-1.078c0-9.499,2.604-18.781,7.534-26.86
		c3.975,0.239,8.048,0.748,12.126,1.517C144.717,151.757,137.96,160.848,133.358,171.583z"/>
	<path fill="#FFFFFF" d="M155.717,213.051c-12.668-8.731-20.734-22.468-22.145-37.727c4.671-12.354,12.102-22.636,21.502-29.749
		c10.784,2.267,21.396,6.317,31.551,12.037c3.893,7.291,5.952,16.654,5.952,27.087c0,4.958-0.467,9.938-1.385,14.811
		C181.032,207.773,168.773,212.454,155.717,213.051z"/>
	<path fill="#FFFFFF" d="M193.103,197.879c0.716-4.365,1.079-8.792,1.079-13.18c-0.003-9.639-1.742-18.461-5.041-25.616
		c7.271,4.328,14.141,9.431,20.438,15.179C206.086,183.284,200.405,191.424,193.103,197.879z"/>
	<path fill="#FFFFFF" d="M210.183,172.645c-19.958-18.05-44.166-28.872-68.316-30.54c3.149-4.771,7.023-8.955,11.524-12.445
		c23.874,2.225,46.312,18.57,57.235,41.695C210.485,171.787,210.336,172.216,210.183,172.645z"/>
	<path fill="#FFFFFF" d="M211.311,169.113c-11.104-22.129-32.905-38.023-56.018-40.849c8.736-6.154,18.977-9.401,29.691-9.401
		c7.464,0,14.67,1.563,21.421,4.645c2.771,5.132,4.78,10.633,5.972,16.354c0.785,4.123,1.186,8.348,1.186,12.552
		c0,3.727-0.315,7.489-0.938,11.179C212.284,165.414,211.844,167.269,211.311,169.113z"/>
</g>
<rect x="10.5" y="320.474" fill="#F2F2F2" width="776" height="238"/>
<g>
	<path fill="#A51620" d="M184.983,491.114c-6.793,0-13.39-1.303-19.627-3.875c25.354-7.158,44.468-28.395,48.851-54.406
		c0.708-3.783,1.067-7.662,1.067-11.525c0-4.281-0.445-8.586-1.323-12.803c-0.945-4.967-2.455-9.838-4.49-14.49
		c16.786,9.039,27.165,26.354,27.165,45.459c0,13.793-5.372,26.76-15.125,36.514S198.776,491.114,184.983,491.114z"/>
	<path fill="#A51620" d="M163.024,486.21c-1.717-0.809-3.413-1.727-5.056-2.734c14.785-1.201,28.607-7.699,38.986-18.033
		C188.051,475.571,176.193,482.907,163.024,486.21z"/>
	<path fill="#A51620" d="M133.358,440.552c-0.009-0.371-0.014-0.729-0.014-1.078c0-9.498,2.604-18.779,7.534-26.859
		c3.975,0.238,8.048,0.748,12.126,1.516C144.717,420.726,137.96,429.817,133.358,440.552z"/>
	<path fill="#A51620" d="M155.717,482.021c-12.668-8.732-20.734-22.469-22.145-37.727c4.671-12.355,12.102-22.637,21.502-29.75
		c10.784,2.268,21.396,6.316,31.551,12.037c3.893,7.291,5.952,16.654,5.952,27.088c0,4.959-0.467,9.938-1.385,14.811
		C181.032,476.741,168.773,481.423,155.717,482.021z"/>
	<path fill="#A51620" d="M193.103,466.849c0.716-4.365,1.079-8.793,1.079-13.18c-0.003-9.639-1.742-18.461-5.041-25.617
		c7.271,4.328,14.141,9.432,20.438,15.18C206.086,452.253,200.405,460.394,193.103,466.849z"/>
	<path fill="#A51620" d="M210.183,441.614c-19.958-18.051-44.166-28.871-68.316-30.541c3.149-4.771,7.023-8.953,11.524-12.443
		c23.874,2.225,46.312,18.57,57.235,41.693C210.485,440.757,210.336,441.185,210.183,441.614z"/>
	<path fill="#A51620" d="M211.311,438.083c-11.104-22.131-32.905-38.023-56.018-40.85c8.736-6.154,18.977-9.4,29.691-9.4
		c7.464,0,14.67,1.563,21.421,4.645c2.771,5.131,4.78,10.633,5.972,16.354c0.785,4.123,1.186,8.35,1.186,12.553
		c0,3.727-0.315,7.488-0.938,11.18C212.284,434.384,211.844,436.237,211.311,438.083z"/>
</g>
<g>
	<path fill="#A51620" d="M312.809,464.383h-6.164l-5.743-16.406h-18.56l-5.603,16.406h-5.953l17.649-50.615h6.723L312.809,464.383z
		 M299.712,443.592l-5.253-15.012c-1.121-3.453-2.031-6.643-2.731-9.631h-0.21c-0.7,3.055-1.681,6.242-2.662,9.432l-5.323,15.211
		H299.712z"/>
	<path fill="#A51620" d="M335.085,460.996c0-2.525,1.751-4.318,4.203-4.318c2.451,0,4.132,1.793,4.132,4.318
		c0,2.391-1.611,4.184-4.202,4.184C336.556,465.18,335.085,463.188,335.085,460.996z"/>
</g>
<g>
	<path fill="#FFFFFF" d="M312.809,195.413h-6.164l-5.743-16.406h-18.56l-5.603,16.406h-5.953l17.649-50.615h6.723L312.809,195.413z
		 M299.712,174.622l-5.253-15.012c-1.121-3.453-2.031-6.643-2.731-9.631h-0.21c-0.7,3.055-1.681,6.242-2.662,9.432l-5.323,15.211
		H299.712z"/>
	<path fill="#FFFFFF" d="M335.085,192.026c0-2.525,1.751-4.318,4.203-4.318c2.451,0,4.132,1.793,4.132,4.318
		c0,2.391-1.611,4.184-4.202,4.184C336.556,196.21,335.085,194.218,335.085,192.026z"/>
</g>
</svg>
