<?xml version="1.0" encoding="utf-8"?>
<!-- Generator: Adobe Illustrator 13.0.0, SVG Export Plug-In . SVG Version: 6.00 Build 14948)  -->
<!DOCTYPE svg PUBLIC "-//W3C//DTD SVG 1.1//EN" "http://www.w3.org/Graphics/SVG/1.1/DTD/svg11.dtd">
<svg version="1.1" id="レイヤー_1" xmlns="http://www.w3.org/2000/svg" xmlns:xlink="http://www.w3.org/1999/xlink" x="0px"
	 y="0px" width="800px" height="600px" viewBox="0 0 800 600" enable-background="new 0 0 800 600" xml:space="preserve">
<rect x="10.5" y="59.5" fill="#A51620" width="776" height="238"/>
<g>
	<path fill="#FFFFFF" d="M184.983,214.148c-6.793,0-13.39-1.302-19.627-3.875c25.354-7.158,44.468-28.394,48.851-54.406
		c0.708-3.783,1.067-7.662,1.067-11.525c0-4.281-0.445-8.586-1.323-12.802c-0.945-4.968-2.455-9.839-4.49-14.491
		c16.786,9.04,27.165,26.354,27.165,45.46c0,13.792-5.372,26.759-15.125,36.513C211.746,208.776,198.776,214.148,184.983,214.148z"
		/>
	<path fill="#FFFFFF" d="M163.024,209.245c-1.717-0.81-3.413-1.726-5.056-2.735c14.785-1.201,28.607-7.699,38.986-18.032
		C188.051,198.605,176.193,205.942,163.024,209.245z"/>
	<path fill="#FFFFFF" d="M133.358,163.587c-0.009-0.371-0.014-0.729-0.014-1.078c0-9.499,2.604-18.781,7.534-26.86
		c3.975,0.239,8.048,0.748,12.126,1.517C144.717,143.761,137.96,152.852,133.358,163.587z"/>
	<path fill="#FFFFFF" d="M155.717,205.054c-12.668-8.731-20.734-22.468-22.145-37.727c4.671-12.354,12.102-22.636,21.502-29.749
		c10.784,2.267,21.396,6.317,31.551,12.037c3.893,7.291,5.952,16.654,5.952,27.087c0,4.958-0.467,9.938-1.385,14.811
		C181.032,199.776,168.773,204.458,155.717,205.054z"/>
	<path fill="#FFFFFF" d="M193.103,189.883c0.716-4.365,1.079-8.792,1.079-13.18c-0.003-9.639-1.742-18.461-5.041-25.616
		c7.271,4.328,14.141,9.431,20.438,15.179C206.086,175.288,200.405,183.428,193.103,189.883z"/>
	<path fill="#FFFFFF" d="M210.183,164.648c-19.958-18.05-44.166-28.872-68.316-30.54c3.149-4.771,7.023-8.955,11.524-12.445
		c23.874,2.225,46.312,18.57,57.235,41.695C210.485,163.791,210.336,164.22,210.183,164.648z"/>
	<path fill="#FFFFFF" d="M211.311,161.117c-11.104-22.129-32.905-38.023-56.018-40.849c8.736-6.154,18.977-9.401,29.691-9.401
		c7.464,0,14.67,1.563,21.421,4.645c2.771,5.132,4.78,10.633,5.972,16.354c0.785,4.123,1.186,8.348,1.186,12.552
		c0,3.727-0.315,7.489-0.938,11.179C212.284,157.417,211.844,159.272,211.311,161.117z"/>
	<path fill="#FFFFFF" d="M169.187,262.82c-3.815-2.124-31.772-25.121-46.454-37.344l-0.196-0.162l-0.231,0.112
		c-0.087,0.038-0.302,0.094-0.784-0.02c-5.303-1.253-24.398-17.651-27.068-19.956c0.999-1.06,4.756-4.828,11.307-9.031
		c5.354-3.436,15.74-7.569,23.321-10.584c2.862-1.141,5.365-2.133,6.998-2.857c2.232,5.383,5.301,10.321,9.14,14.69l-1.227,1.854
		l-0.144,0.22c-4.398,6.673-12.857,14.953-12.945,15.036l0.524,0.6c7.122-5.525,12.004-11.926,14.911-16.47
		c5.77,6.158,13.035,10.893,21.048,13.71c1.777,0.622,3.602,1.157,5.424,1.589c4.574,1.078,9.264,1.541,13.95,1.374
		c2.5,13.428,0.634,28.106-0.884,36.366c-0.283-12.1-4.94-32.494-5.17-33.496l-0.783,0.03c-0.024,0.172-2.628,17.258-5.447,29.024
		C172.095,257.445,169.825,261.744,169.187,262.82z"/>
</g>
<g>
	<polyline fill="#FFFFFF" points="303.403,113.791 306.93,111.37 354.392,214 341.883,214 324.047,175.5 292.096,175.5 
		293.065,172.329 322.58,172.329 301.66,126.336 261.586,213.996 257.348,214 303.403,113.791 	"/>
	<path fill="#FFFFFF" d="M381.012,214h-9.514l-0.125-93.685l9.639-6.385V214z M425.08,214.5l-11.52-0.5l-27.875-34.055
		l29.716-30.957l4.086-0.004l-26.114,26.784L425.08,214.5z"/>
	<path fill="#FFFFFF" d="M443.773,214h-9.516V113.93l9.516,6.385V214z M487.842,214.5l-11.52-0.5l-27.877-34.055l29.719-30.957
		l4.084-0.004l-26.113,26.784L487.842,214.5z"/>
	<path fill="#FFFFFF" d="M545.51,172.186v0.083V214h-9.514v-5.091c-3.729,4.062-9.043,6.093-15.941,6.093
		c-6.344,0-11.658-1.729-15.941-5.186c-4.73-3.735-7.094-8.836-7.094-15.303c0-6.747,2.447-12.098,7.344-16.058
		c4.285-3.512,9.266-5.268,14.939-5.268c1.559,0.057,3.033,0.196,4.424,0.418c3.449,0.5,6.26,1.418,8.43,2.753l-2.004,3.422
		c-3.283-2.058-6.9-3.088-10.85-3.088c-4.006,0-7.121,1.604-9.348,4.811c-2.225,3.208-3.338,7.684-3.338,13.427
		c0,5.021,1.264,9.065,3.797,12.132c2.531,3.067,5.689,4.6,9.475,4.6c6.508,0,11.877-3.315,16.107-9.946v-29.501
		c0-13.872-4.814-20.81-14.439-20.81c-5.787,0-10.934,1.781-15.439,5.341l-2.254-3.673c4.387-3.338,10.271-5.008,17.658-5.008
		C537.514,148.065,545.51,156.106,545.51,172.186z"/>
	<path fill="#FFFFFF" d="M594.748,150.623l-2.252,4.37c-2.504-1.946-5.037-2.921-7.596-2.921c-1.502,0-2.838,0.36-4.006,1.081
		c-4.229,2.77-6.344,8.837-6.344,18.199c0-0.055-0.027-0.138-0.082-0.25V214h-9.516v-63.376l9.516-1.64v7.178
		c1.279-2.367,2.863-4.24,4.758-5.616c2.17-1.542,4.701-2.312,7.594-2.312S592.357,149.029,594.748,150.623z"/>
	<path fill="#FFFFFF" d="M623.375,120.273c0,1.782-0.627,3.297-1.879,4.549c-1.25,1.251-2.74,1.877-4.465,1.877
		c-1.781,0-3.295-0.626-4.549-1.877c-1.252-1.251-1.877-2.767-1.877-4.549c0-1.78,0.625-3.282,1.877-4.506
		c1.254-1.223,2.768-1.837,4.549-1.837c1.725,0,3.215,0.614,4.465,1.837C622.748,116.991,623.375,118.493,623.375,120.273z
		 M621.789,148.983V214h-9.598v-65.016l4.799,1.64"/>
	<path fill="#FFFFFF" d="M693.898,214h-9.598v-43.232c0-13.354-4.676-20.031-14.023-20.031c-9.682,0-16.162,5.871-19.445,17.61V214
		h-9.514v-65.016l9.514,1.64v7.291c5.174-7.065,11.822-10.6,19.947-10.6c7.623,0,13.242,1.585,16.859,4.757
		c4.172,3.673,6.26,9.905,6.26,18.696V214z"/>
	
		<rect x="610.606" y="113.93" transform="matrix(0.7071 0.7071 -0.7071 0.7071 265.7874 -401.0387)" fill="#FFFFFF" width="12.769" height="12.769"/>
</g>
<rect x="10.5" y="320.5" fill="#F2F2F2" width="776" height="238"/>
<g>
	<path fill="#A51620" d="M184.983,475.148c-6.793,0-13.39-1.303-19.627-3.875c25.354-7.158,44.468-28.395,48.851-54.406
		c0.708-3.783,1.067-7.662,1.067-11.525c0-4.281-0.445-8.586-1.323-12.802c-0.945-4.968-2.455-9.839-4.49-14.491
		c16.786,9.04,27.165,26.354,27.165,45.46c0,13.792-5.372,26.759-15.125,36.513C211.746,469.776,198.776,475.148,184.983,475.148z"
		/>
	<path fill="#A51620" d="M163.024,470.244c-1.717-0.809-3.413-1.726-5.056-2.734c14.785-1.201,28.607-7.699,38.986-18.033
		C188.051,459.605,176.193,466.942,163.024,470.244z"/>
	<path fill="#A51620" d="M133.358,424.587c-0.009-0.371-0.014-0.729-0.014-1.078c0-9.499,2.604-18.78,7.534-26.86
		c3.975,0.238,8.048,0.748,12.126,1.517C144.717,404.761,137.96,413.852,133.358,424.587z"/>
	<path fill="#A51620" d="M155.717,466.055c-12.668-8.732-20.734-22.469-22.145-37.727c4.671-12.355,12.102-22.637,21.502-29.75
		c10.784,2.268,21.396,6.317,31.551,12.037c3.893,7.291,5.952,16.654,5.952,27.088c0,4.959-0.467,9.938-1.385,14.811
		C181.032,460.776,168.773,465.457,155.717,466.055z"/>
	<path fill="#A51620" d="M193.103,450.883c0.716-4.365,1.079-8.793,1.079-13.18c-0.003-9.639-1.742-18.461-5.041-25.616
		c7.271,4.327,14.141,9.431,20.438,15.179C206.086,436.287,200.405,444.428,193.103,450.883z"/>
	<path fill="#A51620" d="M210.183,425.648c-19.958-18.051-44.166-28.871-68.316-30.54c3.149-4.771,7.023-8.954,11.524-12.444
		c23.874,2.225,46.312,18.57,57.235,41.694C210.485,424.791,210.336,425.22,210.183,425.648z"/>
	<path fill="#A51620" d="M211.311,422.117c-11.104-22.13-32.905-38.023-56.018-40.85c8.736-6.154,18.977-9.4,29.691-9.4
		c7.464,0,14.67,1.563,21.421,4.645c2.771,5.132,4.78,10.633,5.972,16.354c0.785,4.123,1.186,8.349,1.186,12.552
		c0,3.727-0.315,7.488-0.938,11.18C212.284,418.418,211.844,420.271,211.311,422.117z"/>
	<path fill="#A51620" d="M169.187,523.82c-3.815-2.123-31.772-25.121-46.454-37.344l-0.196-0.162l-0.231,0.111
		c-0.087,0.039-0.302,0.094-0.784-0.02c-5.303-1.253-24.398-17.651-27.068-19.955c0.999-1.061,4.756-4.828,11.307-9.031
		c5.354-3.436,15.74-7.569,23.321-10.585c2.862-1.141,5.365-2.134,6.998-2.856c2.232,5.383,5.301,10.32,9.14,14.689l-1.227,1.855
		l-0.144,0.219c-4.398,6.674-12.857,14.953-12.945,15.037l0.524,0.6c7.122-5.525,12.004-11.926,14.911-16.47
		c5.77,6.158,13.035,10.894,21.048,13.71c1.777,0.621,3.602,1.156,5.424,1.589c4.574,1.078,9.264,1.54,13.95,1.374
		c2.5,13.428,0.634,28.105-0.884,36.365c-0.283-12.1-4.94-32.493-5.17-33.495l-0.783,0.03c-0.024,0.172-2.628,17.258-5.447,29.023
		C172.095,518.445,169.825,522.744,169.187,523.82z"/>
</g>
<g>
	<polyline fill="#A51620" points="303.403,374.791 306.93,372.37 354.392,475 341.883,475 324.047,436.5 292.096,436.5 
		293.065,433.328 322.58,433.328 301.66,387.336 261.586,474.996 257.348,475 303.403,374.791 	"/>
	<path fill="#A51620" d="M381.012,475h-9.514l-0.125-93.686l9.639-6.385V475z M425.08,475.5l-11.52-0.5l-27.875-34.056
		l29.716-30.956l4.086-0.005l-26.114,26.784L425.08,475.5z"/>
	<path fill="#A51620" d="M443.773,475h-9.516V374.93l9.516,6.385V475z M487.842,475.5l-11.52-0.5l-27.877-34.056l29.719-30.956
		l4.084-0.005l-26.113,26.784L487.842,475.5z"/>
	<path fill="#A51620" d="M545.51,433.186v0.083V475h-9.514v-5.092c-3.729,4.063-9.043,6.093-15.941,6.093
		c-6.344,0-11.658-1.729-15.941-5.186c-4.73-3.735-7.094-8.837-7.094-15.303c0-6.747,2.447-12.099,7.344-16.058
		c4.285-3.512,9.266-5.268,14.939-5.268c1.559,0.057,3.033,0.195,4.424,0.418c3.449,0.5,6.26,1.418,8.43,2.753l-2.004,3.422
		c-3.283-2.058-6.9-3.089-10.85-3.089c-4.006,0-7.121,1.604-9.348,4.812c-2.225,3.208-3.338,7.684-3.338,13.427
		c0,5.021,1.264,9.064,3.797,12.133c2.531,3.066,5.689,4.6,9.475,4.6c6.508,0,11.877-3.315,16.107-9.946v-29.501
		c0-13.873-4.814-20.811-14.439-20.811c-5.787,0-10.934,1.781-15.439,5.342l-2.254-3.674c4.387-3.338,10.271-5.008,17.658-5.008
		C537.514,409.064,545.51,417.106,545.51,433.186z"/>
	<path fill="#A51620" d="M594.748,411.623l-2.252,4.369c-2.504-1.945-5.037-2.921-7.596-2.921c-1.502,0-2.838,0.36-4.006,1.081
		c-4.229,2.77-6.344,8.837-6.344,18.198c0-0.055-0.027-0.138-0.082-0.25V475h-9.516v-63.377l9.516-1.64v7.178
		c1.279-2.366,2.863-4.239,4.758-5.616c2.17-1.541,4.701-2.313,7.594-2.313S592.357,410.029,594.748,411.623z"/>
	<path fill="#A51620" d="M623.375,381.273c0,1.781-0.627,3.297-1.879,4.549c-1.25,1.251-2.74,1.877-4.465,1.877
		c-1.781,0-3.295-0.626-4.549-1.877c-1.252-1.252-1.877-2.768-1.877-4.549c0-1.78,0.625-3.282,1.877-4.507
		c1.254-1.224,2.768-1.837,4.549-1.837c1.725,0,3.215,0.613,4.465,1.837C622.748,377.991,623.375,379.493,623.375,381.273z
		 M621.789,409.983V475h-9.598v-65.017l4.799,1.64"/>
	<path fill="#A51620" d="M693.898,475h-9.598v-43.232c0-13.355-4.676-20.031-14.023-20.031c-9.682,0-16.162,5.871-19.445,17.61V475
		h-9.514v-65.017l9.514,1.64v7.291c5.174-7.065,11.822-10.6,19.947-10.6c7.623,0,13.242,1.586,16.859,4.757
		c4.172,3.673,6.26,9.905,6.26,18.696V475z"/>
	
		<rect x="610.606" y="374.93" transform="matrix(0.7071 0.7071 -0.7071 0.7071 450.3423 -324.5936)" fill="#A51620" width="12.769" height="12.769"/>
</g>
<g>
	<path d="M24.813,50.917h-1.469l-2.371-6.097h-3.312v-0.44h3.14l-2.179-5.637l-4.706,12.174l-0.498,0l5.68-14.617L24.813,50.917z"/>
	<path d="M28.509,50.917h-1.321V37.019h1.321V50.917z M34.63,50.986l-1.6-0.07l-3.872-4.729l4.127-4.299l0.567,0l-3.626,3.72
		L34.63,50.986z"/>
	<path d="M37.226,50.917h-1.321V37.019h1.321V50.917z M43.346,50.986l-1.6-0.07l-3.872-4.729l4.127-4.299l0.567,0l-3.626,3.72
		L43.346,50.986z"/>
	<path d="M51.355,45.109v0.012v5.795h-1.322V50.21c-0.518,0.563-1.255,0.846-2.214,0.846c-0.881,0-1.619-0.24-2.214-0.721
		c-0.657-0.519-0.985-1.227-0.985-2.125c0-0.937,0.34-1.68,1.02-2.229c0.595-0.488,1.287-0.732,2.075-0.732
		c0.216,0.008,0.421,0.027,0.614,0.058c0.479,0.069,0.87,0.197,1.171,0.382l-0.278,0.475c-0.456-0.286-0.958-0.429-1.507-0.429
		c-0.556,0-0.989,0.223-1.298,0.668c-0.31,0.445-0.464,1.067-0.464,1.865c0,0.697,0.176,1.259,0.527,1.685
		c0.352,0.425,0.79,0.638,1.316,0.638c0.904,0,1.649-0.46,2.237-1.381v-4.098c0-1.927-0.668-2.89-2.005-2.89
		c-0.804,0-1.519,0.248-2.144,0.742l-0.313-0.51c0.609-0.464,1.427-0.696,2.452-0.696C50.245,41.76,51.355,42.876,51.355,45.109z"/>
	<path d="M58.194,42.115l-0.313,0.607c-0.348-0.271-0.7-0.406-1.055-0.406c-0.209,0-0.394,0.05-0.557,0.15
		c-0.587,0.385-0.881,1.227-0.881,2.527c0-0.008-0.004-0.019-0.012-0.035v5.958h-1.321v-9.029h1.321v0.997
		c0.178-0.329,0.398-0.588,0.661-0.78c0.302-0.214,0.653-0.321,1.055-0.321C57.494,41.783,57.861,41.894,58.194,42.115z"/>
	<path d="M62.169,37.9c0,0.248-0.087,0.458-0.261,0.631c-0.173,0.174-0.38,0.261-0.62,0.261c-0.248,0-0.458-0.087-0.632-0.261
		c-0.174-0.173-0.261-0.384-0.261-0.631s0.087-0.456,0.261-0.626s0.384-0.255,0.632-0.255c0.239,0,0.446,0.085,0.62,0.255
		C62.083,37.444,62.169,37.652,62.169,37.9z M61.949,50.917h-1.333v-9.029h1.333V50.917z"/>
	<path d="M71.964,50.917h-1.333v-6.004c0-1.854-0.649-2.782-1.947-2.782c-1.345,0-2.245,0.816-2.701,2.446v6.34h-1.321v-9.029h1.321
		v1.24c0.719-0.98,1.642-1.472,2.771-1.472c1.059,0,1.839,0.221,2.341,0.661c0.58,0.51,0.87,1.375,0.87,2.596V50.917z"/>
	<path d="M76.438,44.634c0,0.248-0.087,0.458-0.261,0.632s-0.381,0.261-0.62,0.261c-0.248,0-0.458-0.087-0.632-0.261
		s-0.261-0.384-0.261-0.632c0-0.247,0.087-0.456,0.261-0.626c0.174-0.169,0.384-0.255,0.632-0.255c0.239,0,0.446,0.086,0.62,0.255
		C76.351,44.178,76.438,44.387,76.438,44.634z M76.438,48.876c0,0.248-0.087,0.458-0.261,0.632c-0.174,0.173-0.381,0.26-0.62,0.26
		c-0.248,0-0.458-0.087-0.632-0.26c-0.174-0.175-0.261-0.385-0.261-0.632c0-0.247,0.087-0.456,0.261-0.625
		c0.174-0.17,0.384-0.255,0.632-0.255c0.239,0,0.446,0.087,0.62,0.261C76.351,48.43,76.438,48.637,76.438,48.876z"/>
	<path d="M94.751,48.921c-1.082,1.423-2.546,2.135-4.393,2.135c-1.754,0-3.29-0.734-4.608-2.201
		c-1.317-1.467-1.976-3.182-1.976-5.143c0-1.992,0.595-3.707,1.785-5.143c1.213-1.467,2.685-2.2,4.416-2.2
		c1.692,0,3.095,0.479,4.208,1.437l-0.545,0.649c-1.013-1.097-2.233-1.646-3.663-1.646c-1.398,0-2.523,0.677-3.373,2.03
		c-0.811,1.284-1.217,2.908-1.217,4.873c0,1.926,0.471,3.55,1.414,4.873c0.95,1.353,2.136,2.03,3.559,2.03
		c1.646,0,2.909-0.722,3.79-2.167L94.751,48.921z"/>
	<path d="M111.767,43.713c0,2.069-0.664,3.799-1.994,5.188c-1.352,1.437-3.079,2.155-5.181,2.155s-3.833-0.718-5.193-2.155
		c-1.321-1.39-1.982-3.119-1.982-5.188c0-2.062,0.661-3.792,1.982-5.189c1.36-1.436,3.091-2.154,5.193-2.154
		s3.829,0.718,5.181,2.154C111.103,39.921,111.767,41.651,111.767,43.713z M110.226,43.713c0-1.984-0.506-3.633-1.519-4.945
		c-1.059-1.367-2.431-2.05-4.115-2.05c-1.692,0-3.068,0.683-4.126,2.05c-1.012,1.313-1.518,2.961-1.518,4.945
		s0.506,3.632,1.518,4.945c1.059,1.367,2.435,2.05,4.126,2.05c1.685,0,3.057-0.683,4.115-2.05
		C109.719,47.345,110.226,45.697,110.226,43.713z"/>
	<path d="M127.207,50.917h-1.403l-0.73-10.942l-4.787,11.162l-4.915-10.989l-0.695,10.769h-0.463l0.962-14.644l5.67,12.679
		l5.399-12.676L127.207,50.917z"/>
	<path d="M140.837,47.648h-1.936v3.268h-1.414v-3.268h-6.352l7.766-11.349v10.688h1.936V47.648z M137.488,46.987v-7.779
		l-5.352,7.779H137.488z"/>
	<path d="M146.065,42.328h-1.715v5.668c0,0.912,0.124,1.553,0.371,1.924c0.248,0.371,0.676,0.557,1.287,0.557v0.44
		c-1.994,0-2.991-0.976-2.991-2.928v-5.661h-0.846v-0.44h0.846v-1.043h1.333v1.043h1.715V42.328z"/>
	<path d="M159.928,36.961h-5.054v5.819h4.555v0.44h-4.555v7.696h-1.402V36.521h6.456V36.961z"/>
	<path d="M163.985,37.9c0,0.248-0.087,0.458-0.261,0.631c-0.173,0.174-0.38,0.261-0.62,0.261c-0.248,0-0.458-0.087-0.632-0.261
		c-0.174-0.173-0.261-0.384-0.261-0.631s0.087-0.456,0.261-0.626s0.384-0.255,0.632-0.255c0.239,0,0.446,0.085,0.62,0.255
		C163.898,37.444,163.985,37.652,163.985,37.9z M163.765,50.917h-1.333v-9.029h1.333V50.917z"/>
	<path d="M173.779,50.917h-1.333v-6.004c0-1.854-0.649-2.782-1.947-2.782c-1.345,0-2.245,0.816-2.701,2.446v6.34h-1.321v-9.029
		h1.321v1.24c0.719-0.98,1.642-1.472,2.771-1.472c1.059,0,1.839,0.221,2.341,0.661c0.58,0.51,0.869,1.375,0.869,2.596V50.917z"/>
	<path d="M184.466,45.271h-5.563v-0.44h4.196c-0.062-1.739-0.784-2.608-2.167-2.608c-0.896,0-1.621,0.391-2.173,1.172
		c-0.553,0.782-0.829,1.788-0.829,3.018c0,1.262,0.271,2.268,0.812,3.019c0.564,0.789,1.348,1.184,2.354,1.184
		c1.128,0,2.032-0.452,2.712-1.356l0.429,0.525c-0.843,0.848-1.894,1.272-3.153,1.272c-1.267,0-2.351-0.453-3.251-1.358
		c-0.9-0.906-1.351-2-1.351-3.285c0-1.284,0.428-2.377,1.282-3.278c0.854-0.902,1.91-1.352,3.17-1.352
		c0.965,0,1.796,0.339,2.492,1.018C184.118,43.479,184.466,44.303,184.466,45.271z"/>
	<path d="M200.178,50.928h-1.525l-4.601-7.998c0.224,0.016,0.44,0.023,0.649,0.023c2.048,0,3.072-0.962,3.072-2.886
		c0-2.125-1.287-3.168-3.86-3.13h-0.938v13.991h-1.392V36.544c0.217-0.016,1.055-0.023,2.516-0.023
		c3.376-0.031,5.065,1.131,5.065,3.487c0,0.927-0.301,1.686-0.902,2.277c-0.602,0.591-1.419,0.948-2.454,1.071L200.178,50.928z"/>
	<path d="M210.476,45.271h-5.563v-0.44h4.196c-0.063-1.739-0.785-2.608-2.168-2.608c-0.896,0-1.621,0.391-2.173,1.172
		c-0.553,0.782-0.829,1.788-0.829,3.018c0,1.262,0.271,2.268,0.812,3.019c0.564,0.789,1.348,1.184,2.354,1.184
		c1.128,0,2.032-0.452,2.712-1.356l0.429,0.525c-0.843,0.848-1.894,1.272-3.153,1.272c-1.267,0-2.351-0.453-3.251-1.358
		c-0.9-0.906-1.35-2-1.35-3.285c0-1.284,0.427-2.377,1.281-3.278c0.854-0.902,1.91-1.352,3.17-1.352
		c0.966,0,1.796,0.339,2.492,1.018C210.128,43.479,210.476,44.303,210.476,45.271z"/>
	<path d="M220.177,49.897c0,1.336-0.376,2.413-1.129,3.228c-0.754,0.815-1.749,1.223-2.985,1.223c-0.642,0-1.187-0.089-1.635-0.267
		l0.151-0.719c0.563,0.317,1.178,0.476,1.843,0.476c1.63,0,2.445-1.296,2.445-3.887v-5.929c-0.162-0.542-0.445-0.99-0.85-1.346
		c-0.405-0.356-0.83-0.534-1.277-0.534c-0.817,0-1.47,0.382-1.96,1.147s-0.734,1.758-0.734,2.979c0,1.182,0.262,2.179,0.786,2.99
		c0.5,0.773,1.094,1.159,1.78,1.159c0.5,0,0.956-0.15,1.363-0.452l0.266,0.521c-0.571,0.247-1.104,0.371-1.599,0.371
		c-1.159,0-2.123-0.442-2.892-1.327c-0.769-0.885-1.154-1.969-1.154-3.251c0-1.283,0.385-2.366,1.154-3.251
		c0.769-0.885,1.733-1.327,2.892-1.327c0.88,0,1.623,0.329,2.225,0.985v-0.87h1.31V49.897z"/>
	<path d="M230.192,50.917h-1.333v-1.553c-0.672,1.182-1.592,1.773-2.759,1.773c-2.141,0-3.211-1.082-3.211-3.245v-6.004h1.321v6.004
		c0,1.854,0.653,2.782,1.959,2.782c0.842,0,1.526-0.44,2.052-1.322c0.302-0.502,0.514-1.062,0.638-1.68v-5.784h1.333V50.917z"/>
	<path d="M234.226,50.917h-1.322V37.019h1.322V50.917z"/>
	<path d="M243.672,45.109v0.012v5.795h-1.321V50.21c-0.517,0.563-1.255,0.846-2.214,0.846c-0.881,0-1.619-0.24-2.214-0.721
		c-0.657-0.519-0.985-1.227-0.985-2.125c0-0.937,0.34-1.68,1.02-2.229c0.596-0.488,1.287-0.732,2.075-0.732
		c0.216,0.008,0.421,0.027,0.614,0.058c0.479,0.069,0.87,0.197,1.171,0.382l-0.279,0.475c-0.456-0.286-0.958-0.429-1.506-0.429
		c-0.556,0-0.989,0.223-1.298,0.668c-0.309,0.445-0.463,1.067-0.463,1.865c0,0.697,0.175,1.259,0.527,1.685
		c0.351,0.425,0.789,0.638,1.315,0.638c0.903,0,1.649-0.46,2.236-1.381v-4.098c0-1.927-0.667-2.89-2.004-2.89
		c-0.805,0-1.519,0.248-2.145,0.742l-0.313-0.51c0.609-0.464,1.426-0.696,2.452-0.696C242.562,41.76,243.672,42.876,243.672,45.109z
		"/>
	<path d="M250.512,42.115l-0.314,0.607c-0.347-0.271-0.699-0.406-1.055-0.406c-0.208,0-0.394,0.05-0.556,0.15
		c-0.588,0.385-0.881,1.227-0.881,2.527c0-0.008-0.004-0.019-0.012-0.035v5.958h-1.321v-9.029h1.321v0.997
		c0.177-0.329,0.398-0.588,0.661-0.78c0.301-0.214,0.653-0.321,1.055-0.321S250.179,41.894,250.512,42.115z"/>
</g>
</svg>
