<?xml version="1.0" encoding="utf-8"?>
<!-- Generator: Adobe Illustrator 13.0.0, SVG Export Plug-In . SVG Version: 6.00 Build 14948)  -->
<!DOCTYPE svg PUBLIC "-//W3C//DTD SVG 1.1//EN" "http://www.w3.org/Graphics/SVG/1.1/DTD/svg11.dtd">
<svg version="1.1" id="レイヤー_1" xmlns="http://www.w3.org/2000/svg" xmlns:xlink="http://www.w3.org/1999/xlink" x="0px"
	 y="0px" width="800px" height="600px" viewBox="0 0 800 600" enable-background="new 0 0 800 600" xml:space="preserve">
<rect x="10.5" y="59.5" fill="#A51620" width="776" height="254"/>
<g>
	<path fill="#FFFFFF" d="M639.935,239.659c-8.471,0-16.697-1.625-24.476-4.833c31.616-8.926,55.452-35.407,60.918-67.844
		c0.883-4.717,1.331-9.554,1.331-14.372c0-5.338-0.555-10.707-1.65-15.964c-1.179-6.196-3.062-12.27-5.599-18.071
		c20.933,11.273,33.874,32.864,33.874,56.689c0,17.198-6.698,33.369-18.861,45.532C673.309,232.96,657.135,239.659,639.935,239.659z
		"/>
	<path fill="#FFFFFF" d="M612.553,233.544c-2.142-1.009-4.256-2.152-6.305-3.41c18.438-1.499,35.674-9.602,48.615-22.487
		C643.761,220.277,628.974,229.426,612.553,233.544z"/>
	<path fill="#FFFFFF" d="M575.559,176.609c-0.011-0.463-0.018-0.909-0.018-1.345c0-11.845,3.248-23.419,9.396-33.494
		c4.956,0.297,10.036,0.932,15.121,1.891C589.724,151.886,581.297,163.222,575.559,176.609z"/>
	<path fill="#FFFFFF" d="M603.44,228.319c-15.798-10.888-25.855-28.018-27.614-47.045c5.825-15.406,15.091-28.228,26.813-37.097
		c13.447,2.827,26.68,7.877,39.344,15.01c4.854,9.091,7.422,20.767,7.422,33.778c0,6.183-0.582,12.394-1.727,18.468
		C635.009,221.737,619.722,227.575,603.44,228.319z"/>
	<path fill="#FFFFFF" d="M650.061,209.4c0.894-5.443,1.346-10.964,1.346-16.435c-0.004-12.021-2.173-23.021-6.286-31.944
		c9.066,5.396,17.633,11.76,25.485,18.929C666.251,191.2,659.166,201.351,650.061,209.4z"/>
	<path fill="#FFFFFF" d="M671.359,177.933c-24.888-22.509-55.075-36.003-85.191-38.083c3.928-5.95,8.759-11.166,14.37-15.519
		c29.771,2.775,57.751,23.157,71.373,51.994C671.735,176.863,671.55,177.398,671.359,177.933z"/>
	<path fill="#FFFFFF" d="M672.766,173.529c-13.847-27.596-41.032-47.416-69.854-50.939c10.895-7.674,23.664-11.723,37.025-11.723
		c9.308,0,18.294,1.949,26.713,5.792c3.456,6.399,5.96,13.259,7.447,20.394c0.979,5.141,1.479,10.411,1.479,15.652
		c0,4.647-0.394,9.338-1.171,13.941C673.979,168.916,673.431,171.228,672.766,173.529z"/>
	<path fill="#FFFFFF" d="M649.499,301.533c-5.237-1.483-45.756-21.387-67.076-32.015l-0.285-0.142l-0.249,0.201
		c-0.094,0.074-0.339,0.201-0.955,0.201c-6.795,0-34.668-14.431-38.568-16.467c0.908-1.569,4.388-7.218,11.136-14.196
		c5.515-5.704,16.935-13.696,25.271-19.528c3.148-2.203,5.9-4.125,7.675-5.472c4.251,5.894,9.392,11.007,15.302,15.21l-0.958,2.604
		l-0.112,0.307c-3.425,9.358-11.321,21.832-11.402,21.956l0.807,0.579c7.063-8.745,11.153-17.913,13.382-24.261
		c8.765,5.824,18.938,9.489,29.471,10.61c2.334,0.247,4.703,0.374,7.037,0.374c5.859,0,11.686-0.782,17.323-2.326
		c6.882,15.58,8.82,33.93,9.346,44.39c-3.81-14.606-15.304-38.021-15.869-39.171l-0.942,0.26c0.021,0.215,1.753,21.699,1.704,36.786
		C651.488,294.178,649.963,300.043,649.499,301.533z"/>
</g>
<g>
	<polyline fill="#FFFFFF" points="134.338,113.791 137.865,111.37 185.327,214 172.818,214 154.982,175.5 123.031,175.5 
		124,172.329 153.515,172.329 132.595,126.336 92.521,213.996 88.283,214 134.338,113.791 	"/>
	<path fill="#FFFFFF" d="M211.947,214h-9.514l-0.125-93.685l9.639-6.385V214z M256.015,214.5l-11.519-0.5l-27.875-34.055
		l29.717-30.957l4.084-0.004l-26.113,26.784L256.015,214.5z"/>
	<path fill="#FFFFFF" d="M274.708,214h-9.515V113.93l9.515,6.385V214z M318.776,214.5l-11.519-0.5l-27.876-34.055l29.717-30.957
		l4.084-0.004l-26.112,26.784L318.776,214.5z"/>
	<path fill="#FFFFFF" d="M376.445,172.186v0.083V214h-9.515v-5.091c-3.729,4.062-9.043,6.093-15.941,6.093
		c-6.343,0-11.657-1.729-15.94-5.186c-4.73-3.735-7.095-8.836-7.095-15.303c0-6.747,2.448-12.098,7.345-16.058
		c4.284-3.512,9.265-5.268,14.939-5.268c1.558,0.057,3.032,0.196,4.423,0.418c3.449,0.5,6.26,1.418,8.43,2.753l-2.003,3.422
		c-3.284-2.058-6.9-3.088-10.85-3.088c-4.007,0-7.122,1.604-9.348,4.811c-2.226,3.208-3.338,7.684-3.338,13.427
		c0,5.021,1.265,9.065,3.797,12.132c2.531,3.067,5.688,4.6,9.474,4.6c6.509,0,11.877-3.315,16.107-9.946v-29.501
		c0-13.872-4.813-20.81-14.439-20.81c-5.787,0-10.933,1.781-15.439,5.341l-2.253-3.673c4.387-3.338,10.272-5.008,17.659-5.008
		C368.448,148.065,376.445,156.106,376.445,172.186z"/>
	<path fill="#FFFFFF" d="M425.684,150.623l-2.253,4.37c-2.504-1.946-5.036-2.921-7.595-2.921c-1.503,0-2.838,0.36-4.007,1.081
		c-4.229,2.77-6.343,8.837-6.343,18.199c0-0.055-0.028-0.138-0.083-0.25V214h-9.515v-63.376l9.515-1.64v7.178
		c1.279-2.367,2.864-4.24,4.758-5.616c2.17-1.542,4.701-2.312,7.595-2.312C420.648,148.233,423.292,149.029,425.684,150.623z"/>
	<path fill="#FFFFFF" d="M454.31,120.273c0,1.782-0.626,3.297-1.878,4.549c-1.251,1.251-2.741,1.877-4.465,1.877
		c-1.781,0-3.296-0.626-4.549-1.877c-1.252-1.251-1.878-2.767-1.878-4.549c0-1.78,0.626-3.282,1.878-4.506
		c1.253-1.223,2.768-1.837,4.549-1.837c1.724,0,3.214,0.614,4.465,1.837C453.684,116.991,454.31,118.493,454.31,120.273z
		 M452.725,148.983V214h-9.598v-65.016l4.798,1.64"/>
	<path fill="#FFFFFF" d="M524.833,214h-9.598v-43.232c0-13.354-4.675-20.031-14.022-20.031c-9.682,0-16.163,5.871-19.446,17.61V214
		h-9.514v-65.016l9.514,1.64v7.291c5.175-7.065,11.822-10.6,19.947-10.6c7.623,0,13.242,1.585,16.859,4.757
		c4.173,3.673,6.26,9.905,6.26,18.696V214z"/>
	
		<rect x="441.54" y="113.93" transform="matrix(0.7071 0.7071 -0.7071 0.7071 216.2693 -281.4914)" fill="#FFFFFF" width="12.769" height="12.769"/>
</g>
<g>
	<path d="M33.079,48.428h-2.534l-4.091-10.521h-5.715v-0.76h5.417l-3.76-9.727l-8.119,21.006l-0.858,0.001l9.8-25.221L33.079,48.428
		z"/>
	<path d="M39.458,48.428h-2.28v-23.98h2.28V48.428z M50.018,48.548l-2.76-0.12l-6.68-8.161l7.121-7.418l0.979-0.001l-6.257,6.418
		L50.018,48.548z"/>
	<path d="M54.497,48.428h-2.28v-23.98h2.28V48.428z M65.058,48.548l-2.76-0.12l-6.68-8.161l7.121-7.418l0.979-0.001l-6.257,6.418
		L65.058,48.548z"/>
	<path d="M78.877,38.407v0.021v10h-2.28v-1.22c-0.893,0.973-2.167,1.46-3.82,1.46c-1.52,0-2.793-0.414-3.82-1.243
		c-1.134-0.895-1.7-2.117-1.7-3.667c0-1.616,0.586-2.898,1.76-3.848c1.027-0.842,2.22-1.263,3.58-1.263
		c0.373,0.014,0.727,0.047,1.06,0.101c0.827,0.119,1.5,0.34,2.02,0.659l-0.48,0.82c-0.787-0.493-1.653-0.74-2.6-0.74
		c-0.96,0-1.707,0.385-2.24,1.153c-0.534,0.769-0.8,1.841-0.8,3.218c0,1.203,0.303,2.172,0.91,2.907
		c0.606,0.734,1.363,1.102,2.27,1.102c1.56,0,2.847-0.794,3.86-2.383v-7.07c0-3.324-1.153-4.986-3.46-4.986
		c-1.387,0-2.62,0.427-3.7,1.28l-0.54-0.88c1.051-0.801,2.461-1.2,4.231-1.2C76.96,32.628,78.877,34.555,78.877,38.407z"/>
	<path d="M90.677,33.24l-0.54,1.048c-0.6-0.467-1.207-0.7-1.82-0.7c-0.36,0-0.68,0.086-0.96,0.259
		c-1.013,0.664-1.52,2.117-1.52,4.361c0-0.014-0.007-0.033-0.02-0.061v10.28h-2.28v-15.58h2.28v1.72
		c0.307-0.567,0.687-1.016,1.14-1.346c0.52-0.369,1.126-0.554,1.82-0.554S90.103,32.858,90.677,33.24z"/>
	<path d="M97.536,25.968c0,0.427-0.15,0.79-0.45,1.09c-0.3,0.3-0.657,0.45-1.07,0.45c-0.427,0-0.79-0.15-1.09-0.45
		c-0.3-0.3-0.45-0.663-0.45-1.09s0.15-0.787,0.45-1.08c0.3-0.293,0.663-0.44,1.09-0.44c0.413,0,0.77,0.147,1.07,0.44
		C97.386,25.181,97.536,25.541,97.536,25.968z M97.156,48.428h-2.3v-15.58h2.3V48.428z"/>
	<path d="M114.436,48.428h-2.3v-10.36c0-3.2-1.12-4.8-3.36-4.8c-2.32,0-3.874,1.407-4.66,4.22v10.94h-2.28v-15.58h2.28v2.14
		c1.24-1.692,2.833-2.54,4.78-2.54c1.827,0,3.173,0.381,4.04,1.141c1,0.88,1.5,2.373,1.5,4.479V48.428z"/>
	<path d="M122.155,37.588c0,0.427-0.15,0.79-0.45,1.09c-0.3,0.3-0.657,0.45-1.07,0.45c-0.427,0-0.79-0.15-1.09-0.45
		c-0.3-0.3-0.45-0.663-0.45-1.09s0.15-0.787,0.45-1.08c0.3-0.293,0.663-0.44,1.09-0.44c0.413,0,0.77,0.147,1.07,0.44
		C122.005,36.801,122.155,37.161,122.155,37.588z M122.155,44.907c0,0.428-0.15,0.79-0.45,1.091c-0.3,0.3-0.657,0.449-1.07,0.449
		c-0.427,0-0.79-0.149-1.09-0.449c-0.3-0.301-0.45-0.663-0.45-1.091c0-0.426,0.15-0.786,0.45-1.079c0.3-0.294,0.663-0.44,1.09-0.44
		c0.413,0,0.77,0.15,1.07,0.45C122.005,44.138,122.155,44.494,122.155,44.907z"/>
	<path d="M153.755,44.984c-1.867,2.455-4.394,3.684-7.58,3.684c-3.027,0-5.677-1.266-7.95-3.797s-3.41-5.489-3.41-8.873
		c0-3.438,1.026-6.396,3.08-8.873c2.093-2.531,4.633-3.797,7.62-3.797c2.92,0,5.34,0.826,7.26,2.479l-0.94,1.12
		c-1.747-1.894-3.854-2.84-6.32-2.84c-2.413,0-4.353,1.168-5.82,3.503c-1.4,2.215-2.1,5.018-2.1,8.407
		c0,3.322,0.813,6.125,2.44,8.407c1.64,2.335,3.687,3.502,6.14,3.502c2.84,0,5.02-1.246,6.54-3.739L153.755,44.984z"/>
	<path d="M183.114,35.998c0,3.57-1.146,6.555-3.44,8.952c-2.333,2.479-5.313,3.718-8.94,3.718c-3.627,0-6.613-1.239-8.96-3.718
		c-2.28-2.397-3.42-5.382-3.42-8.952c0-3.558,1.14-6.542,3.42-8.953c2.347-2.479,5.333-3.717,8.96-3.717
		c3.626,0,6.606,1.238,8.94,3.717C181.968,29.456,183.114,32.44,183.114,35.998z M180.455,35.998c0-3.424-0.874-6.269-2.62-8.533
		c-1.827-2.358-4.193-3.537-7.1-3.537c-2.92,0-5.293,1.179-7.12,3.537c-1.747,2.265-2.62,5.109-2.62,8.533s0.873,6.268,2.62,8.532
		c1.827,2.358,4.2,3.537,7.12,3.537c2.907,0,5.273-1.179,7.1-3.537C179.581,42.266,180.455,39.422,180.455,35.998z"/>
	<path d="M209.754,48.428h-2.42l-1.26-18.88l-8.26,19.26l-8.48-18.961l-1.2,18.581h-0.8l1.661-25.268l9.784,21.876l9.315-21.872
		L209.754,48.428z"/>
	<path d="M233.274,42.788h-3.34v5.64h-2.44v-5.64h-10.96l13.4-19.582v18.441h3.34V42.788z M227.495,41.647V28.225l-9.235,13.423
		H227.495z"/>
	<path d="M242.294,33.607h-2.96v9.78c0,1.573,0.213,2.68,0.64,3.32c0.427,0.64,1.167,0.96,2.22,0.96v0.76
		c-3.44,0-5.16-1.685-5.16-5.053v-9.768h-1.46v-0.76h1.46v-1.8h2.3v1.8h2.96V33.607z"/>
	<path d="M266.214,24.348h-8.72v10.04h7.86v0.76h-7.86v13.28h-2.42v-24.84h11.14V24.348z"/>
	<path d="M273.214,25.968c0,0.427-0.15,0.79-0.45,1.09c-0.3,0.3-0.657,0.45-1.07,0.45c-0.427,0-0.79-0.15-1.09-0.45
		c-0.3-0.3-0.45-0.663-0.45-1.09s0.15-0.787,0.45-1.08c0.3-0.293,0.663-0.44,1.09-0.44c0.413,0,0.77,0.147,1.07,0.44
		C273.064,25.181,273.214,25.541,273.214,25.968z M272.834,48.428h-2.3v-15.58h2.3V48.428z"/>
	<path d="M290.113,48.428h-2.3v-10.36c0-3.2-1.12-4.8-3.36-4.8c-2.32,0-3.874,1.407-4.66,4.22v10.94h-2.28v-15.58h2.28v2.14
		c1.24-1.692,2.833-2.54,4.78-2.54c1.827,0,3.173,0.381,4.04,1.141c1,0.88,1.5,2.373,1.5,4.479V48.428z"/>
	<path d="M308.553,38.688h-9.6v-0.76h7.24c-0.107-3-1.354-4.5-3.74-4.5c-1.547,0-2.797,0.674-3.75,2.022
		c-0.954,1.349-1.431,3.085-1.431,5.207c0,2.177,0.467,3.913,1.4,5.208c0.974,1.361,2.326,2.042,4.061,2.042
		c1.946,0,3.506-0.779,4.68-2.34l0.74,0.906c-1.454,1.463-3.268,2.194-5.44,2.194c-2.187,0-4.057-0.781-5.61-2.343
		c-1.553-1.563-2.33-3.451-2.33-5.668c0-2.216,0.737-4.102,2.211-5.656c1.473-1.556,3.296-2.333,5.47-2.333
		c1.666,0,3.1,0.585,4.3,1.756C307.953,35.594,308.553,37.016,308.553,38.688z"/>
	<path d="M335.663,48.447h-2.631l-7.939-13.8c0.387,0.027,0.76,0.04,1.12,0.04c3.533,0,5.3-1.66,5.3-4.979
		c0-3.667-2.22-5.467-6.66-5.4h-1.62v24.14h-2.4V23.628c0.374-0.026,1.82-0.04,4.341-0.04c5.826-0.054,8.739,1.952,8.739,6.017
		c0,1.6-0.519,2.909-1.557,3.929c-1.039,1.02-2.449,1.636-4.233,1.849L335.663,48.447z"/>
	<path d="M353.432,38.688h-9.6v-0.76h7.24c-0.107-3-1.354-4.5-3.74-4.5c-1.547,0-2.797,0.674-3.75,2.022
		c-0.954,1.349-1.431,3.085-1.431,5.207c0,2.177,0.467,3.913,1.4,5.208c0.974,1.361,2.326,2.042,4.061,2.042
		c1.946,0,3.506-0.779,4.68-2.34l0.74,0.906c-1.454,1.463-3.268,2.194-5.44,2.194c-2.187,0-4.057-0.781-5.61-2.343
		c-1.553-1.563-2.33-3.451-2.33-5.668c0-2.216,0.737-4.102,2.211-5.656c1.473-1.556,3.296-2.333,5.47-2.333
		c1.666,0,3.1,0.585,4.3,1.756C352.832,35.594,353.432,37.016,353.432,38.688z"/>
	<path d="M370.171,46.668c0,2.307-0.649,4.163-1.949,5.569c-1.301,1.407-3.018,2.11-5.15,2.11c-1.106,0-2.047-0.153-2.82-0.46
		l0.261-1.24c0.973,0.547,2.032,0.82,3.18,0.82c2.813,0,4.22-2.235,4.22-6.707V36.531c-0.279-0.935-0.769-1.709-1.467-2.322
		c-0.698-0.614-1.433-0.921-2.204-0.921c-1.41,0-2.537,0.659-3.382,1.979s-1.268,3.033-1.268,5.14c0,2.04,0.452,3.761,1.356,5.16
		c0.864,1.334,1.889,2,3.072,2c0.863,0,1.648-0.26,2.353-0.779l0.459,0.899c-0.986,0.427-1.906,0.641-2.76,0.641
		c-2,0-3.663-0.764-4.99-2.29c-1.326-1.527-1.99-3.397-1.99-5.61s0.664-4.083,1.99-5.61c1.327-1.526,2.99-2.29,4.99-2.29
		c1.52,0,2.8,0.567,3.84,1.7v-1.5h2.26V46.668z"/>
	<path d="M387.451,48.428h-2.3v-2.68c-1.16,2.04-2.747,3.06-4.761,3.06c-3.693,0-5.54-1.866-5.54-5.6v-10.36h2.28v10.36
		c0,3.199,1.127,4.8,3.38,4.8c1.453,0,2.634-0.76,3.54-2.28c0.521-0.866,0.887-1.833,1.101-2.899v-9.98h2.3V48.428z"/>
	<path d="M394.412,48.428h-2.281v-23.98h2.281V48.428z"/>
	<path d="M410.711,38.407v0.021v10h-2.279v-1.22c-0.893,0.973-2.166,1.46-3.82,1.46c-1.52,0-2.793-0.414-3.82-1.243
		c-1.133-0.895-1.7-2.117-1.7-3.667c0-1.616,0.586-2.898,1.76-3.848c1.027-0.842,2.221-1.263,3.58-1.263
		c0.373,0.014,0.727,0.047,1.061,0.101c0.826,0.119,1.5,0.34,2.02,0.659l-0.48,0.82c-0.787-0.493-1.652-0.74-2.6-0.74
		c-0.959,0-1.707,0.385-2.24,1.153s-0.799,1.841-0.799,3.218c0,1.203,0.303,2.172,0.91,2.907c0.605,0.734,1.361,1.102,2.27,1.102
		c1.559,0,2.846-0.794,3.859-2.383v-7.07c0-3.324-1.152-4.986-3.459-4.986c-1.389,0-2.621,0.427-3.701,1.28l-0.539-0.88
		c1.051-0.801,2.461-1.2,4.23-1.2C408.795,32.628,410.711,34.555,410.711,38.407z"/>
	<path d="M422.512,33.24l-0.541,1.048c-0.6-0.467-1.207-0.7-1.82-0.7c-0.359,0-0.68,0.086-0.959,0.259
		c-1.014,0.664-1.52,2.117-1.52,4.361c0-0.014-0.008-0.033-0.021-0.061v10.28h-2.279v-15.58h2.279v1.72
		c0.307-0.567,0.688-1.016,1.141-1.346c0.52-0.369,1.127-0.554,1.82-0.554S421.938,32.858,422.512,33.24z"/>
</g>
<rect x="10.503" y="320.252" fill="#F2F2F2" width="776" height="254"/>
<g>
	<path fill="#A51620" d="M639.937,500.411c-8.471,0-16.697-1.624-24.475-4.833c31.615-8.926,55.451-35.406,60.918-67.844
		c0.883-4.717,1.33-9.554,1.33-14.371c0-5.339-0.555-10.707-1.65-15.965c-1.178-6.195-3.061-12.27-5.598-18.07
		c20.932,11.272,33.873,32.863,33.873,56.688c0,17.198-6.697,33.368-18.861,45.532C673.312,493.713,657.138,500.411,639.937,500.411
		z"/>
	<path fill="#A51620" d="M612.556,494.296c-2.143-1.009-4.256-2.152-6.305-3.41c18.438-1.499,35.674-9.602,48.615-22.487
		C643.763,481.029,628.976,490.178,612.556,494.296z"/>
	<path fill="#A51620" d="M575.562,437.361c-0.012-0.463-0.018-0.91-0.018-1.346c0-11.845,3.248-23.419,9.395-33.494
		c4.957,0.298,10.037,0.933,15.121,1.892C589.726,412.639,581.3,423.975,575.562,437.361z"/>
	<path fill="#A51620" d="M603.442,489.07c-15.797-10.888-25.855-28.018-27.613-47.045c5.824-15.406,15.09-28.228,26.813-37.097
		c13.447,2.827,26.68,7.877,39.344,15.011c4.855,9.09,7.422,20.767,7.422,33.777c0,6.184-0.582,12.395-1.727,18.469
		C635.011,482.489,619.724,488.327,603.442,489.07z"/>
	<path fill="#A51620" d="M650.063,470.152c0.893-5.443,1.346-10.965,1.346-16.436c-0.004-12.02-2.174-23.021-6.287-31.943
		c9.066,5.396,17.633,11.76,25.486,18.929C666.253,451.951,659.169,462.103,650.063,470.152z"/>
	<path fill="#A51620" d="M671.362,438.685c-24.889-22.509-55.076-36.003-85.191-38.083c3.928-5.951,8.758-11.166,14.369-15.52
		c29.771,2.775,57.752,23.158,71.373,51.994C671.737,437.615,671.552,438.15,671.362,438.685z"/>
	<path fill="#A51620" d="M672.769,434.281c-13.848-27.596-41.033-47.416-69.855-50.939c10.895-7.674,23.664-11.723,37.025-11.723
		c9.309,0,18.295,1.948,26.713,5.792c3.457,6.399,5.961,13.259,7.447,20.394c0.979,5.142,1.479,10.411,1.479,15.652
		c0,4.646-0.393,9.338-1.17,13.941C673.981,429.668,673.433,431.98,672.769,434.281z"/>
	<path fill="#A51620" d="M649.501,562.285c-5.236-1.483-45.756-21.387-67.076-32.016l-0.285-0.141l-0.248,0.2
		c-0.094,0.073-0.34,0.201-0.955,0.201c-6.795,0-34.668-14.431-38.568-16.468c0.908-1.568,4.387-7.218,11.135-14.195
		c5.516-5.704,16.936-13.696,25.271-19.528c3.148-2.202,5.9-4.126,7.674-5.472c4.252,5.895,9.393,11.008,15.303,15.211l-0.959,2.604
		l-0.111,0.307c-3.426,9.359-11.322,21.832-11.402,21.957l0.807,0.578c7.063-8.744,11.152-17.913,13.381-24.262
		c8.766,5.824,18.938,9.489,29.471,10.611c2.334,0.246,4.703,0.373,7.037,0.373c5.859,0,11.686-0.782,17.324-2.326
		c6.881,15.58,8.82,33.93,9.346,44.39c-3.811-14.606-15.305-38.021-15.869-39.171l-0.943,0.26
		c0.021,0.215,1.754,21.699,1.705,36.786C651.491,554.93,649.966,560.795,649.501,562.285z"/>
</g>
<g>
	<polyline fill="#A51620" points="134.341,374.543 137.868,372.122 185.33,474.752 172.821,474.752 154.985,436.252 
		123.034,436.252 124.003,433.08 153.518,433.08 132.598,387.088 92.524,474.748 88.286,474.752 134.341,374.543 	"/>
	<path fill="#A51620" d="M211.95,474.752h-9.514l-0.125-93.686l9.639-6.385V474.752z M256.018,475.252l-11.519-0.5l-27.875-34.056
		l29.717-30.956l4.084-0.005l-26.113,26.784L256.018,475.252z"/>
	<path fill="#A51620" d="M274.711,474.752h-9.515v-100.07l9.515,6.385V474.752z M318.779,475.252l-11.519-0.5l-27.877-34.056
		l29.718-30.956l4.084-0.005l-26.112,26.784L318.779,475.252z"/>
	<path fill="#A51620" d="M376.448,432.938v0.083v41.731h-9.515v-5.092c-3.729,4.063-9.043,6.093-15.941,6.093
		c-6.343,0-11.657-1.729-15.94-5.186c-4.73-3.735-7.095-8.837-7.095-15.303c0-6.747,2.448-12.099,7.345-16.058
		c4.284-3.512,9.265-5.268,14.939-5.268c1.558,0.057,3.032,0.195,4.423,0.418c3.449,0.5,6.26,1.418,8.43,2.753l-2.003,3.422
		c-3.284-2.058-6.9-3.089-10.85-3.089c-4.007,0-7.122,1.604-9.348,4.812c-2.226,3.208-3.338,7.684-3.338,13.427
		c0,5.021,1.264,9.064,3.797,12.133c2.531,3.066,5.688,4.6,9.474,4.6c6.509,0,11.877-3.315,16.107-9.946v-29.501
		c0-13.873-4.813-20.811-14.439-20.811c-5.787,0-10.933,1.781-15.439,5.342l-2.253-3.674c4.387-3.338,10.271-5.008,17.658-5.008
		C368.451,408.816,376.448,416.858,376.448,432.938z"/>
	<path fill="#A51620" d="M425.687,411.375l-2.254,4.369c-2.504-1.945-5.035-2.921-7.594-2.921c-1.504,0-2.838,0.36-4.008,1.081
		c-4.229,2.77-6.342,8.837-6.342,18.198c0-0.055-0.029-0.138-0.084-0.25v42.899h-9.513v-63.377l9.513-1.64v7.178
		c1.279-2.366,2.865-4.239,4.758-5.616c2.17-1.541,4.701-2.313,7.596-2.313C420.651,408.984,423.294,409.781,425.687,411.375z"/>
	<path fill="#A51620" d="M454.312,381.025c0,1.781-0.625,3.297-1.877,4.549c-1.252,1.251-2.742,1.877-4.465,1.877
		c-1.781,0-3.297-0.626-4.549-1.877c-1.252-1.252-1.879-2.768-1.879-4.549c0-1.78,0.627-3.282,1.879-4.507
		c1.252-1.224,2.768-1.837,4.549-1.837c1.723,0,3.213,0.613,4.465,1.837C453.687,377.743,454.312,379.245,454.312,381.025z
		 M452.728,409.735v65.017h-9.598v-65.017l4.797,1.64"/>
	<path fill="#A51620" d="M524.835,474.752h-9.598V431.52c0-13.355-4.674-20.031-14.021-20.031c-9.682,0-16.164,5.871-19.447,17.61
		v45.653h-9.514v-65.017l9.514,1.64v7.291c5.176-7.065,11.822-10.6,19.947-10.6c7.623,0,13.242,1.586,16.859,4.757
		c4.174,3.673,6.26,9.905,6.26,18.696V474.752z"/>
	
		<rect x="441.542" y="374.682" transform="matrix(0.7071 0.7071 -0.7071 0.7071 400.6494 -205.1203)" fill="#A51620" width="12.769" height="12.769"/>
</g>
</svg>
